<svg width="19" height="18" viewBox="0 0 19 18" fill="none" xmlns="http://www.w3.org/2000/svg">
<path d="M9.50059 13.9355L9.75883 14.0917L13.9088 16.6017L13.909 16.6018C14.2886 16.8315 14.7534 16.494 14.6531 16.0628L13.5531 11.343L13.4847 11.0492L13.7126 10.8516L17.3826 7.67164L17.3828 7.67149C17.7196 7.37999 17.5353 6.83254 17.1004 6.79795L17.0978 6.79774L12.2678 6.38773L11.9673 6.36223L11.8497 6.08461L9.9597 1.62461L9.95904 1.62304C9.79057 1.22168 9.20958 1.22168 9.0411 1.62304L9.04029 1.62498L7.15028 6.07498L7.03252 6.35225L6.73236 6.37773L1.90236 6.78773L1.89972 6.78795L1.89972 6.78795C1.46481 6.82254 1.28059 7.36999 1.61732 7.66149L1.6175 7.66164L5.2875 10.8416L5.5155 11.0392L5.44702 11.333L4.34708 16.0528L9.50059 13.9355ZM9.50059 13.9355L9.24207 14.0912M9.50059 13.9355L9.24207 14.0912M9.24207 14.0912L5.09207 16.5912L5.09117 16.5918M9.24207 14.0912L5.09117 16.5918M5.09117 16.5918C4.71162 16.8215 4.24695 16.4841 4.34702 16.053L5.09117 16.5918Z" stroke="black"/>
</svg>
