<svg width="25" height="21" viewBox="0 0 25 21" fill="none" xmlns="http://www.w3.org/2000/svg">
<path d="M18.3999 16.3881C16.7799 16.3881 15.7599 16.8921 14.8599 17.3481C14.0799 17.7441 13.4439 18.0681 12.3999 18.0681C11.3199 18.0681 10.7199 17.7681 9.9399 17.3481C9.0399 16.8921 8.0559 16.3881 6.3999 16.3881C4.7439 16.3881 3.7599 16.8921 2.8599 17.3481C2.0799 17.7441 1.4559 18.0681 0.399902 18.0681V20.4081C2.0199 20.4081 3.0399 19.9041 3.9399 19.4481C4.7199 19.0521 5.3439 18.7281 6.3999 18.7281C7.4559 18.7281 8.0799 19.0281 8.8599 19.4481C9.7599 19.9041 10.7439 20.4081 12.3999 20.4081C14.0559 20.4081 15.0399 19.9041 15.9399 19.4481C16.7199 19.0521 17.3559 18.7281 18.3999 18.7281C19.4799 18.7281 20.0799 19.0281 20.8599 19.4481C21.7599 19.9041 22.7559 20.4081 24.3999 20.4081V18.0681C23.3199 18.0681 22.7199 17.7681 21.9399 17.3481C21.0399 16.8921 20.0199 16.3881 18.3999 16.3881ZM18.3999 11.0481C16.7799 11.0481 15.7599 11.5641 14.8599 12.0081C14.0799 12.3921 13.4439 12.7281 12.3999 12.7281C11.3199 12.7281 10.7199 12.4281 9.9399 12.0081C9.0399 11.5521 8.0559 11.0481 6.3999 11.0481C4.7439 11.0481 3.7599 11.5641 2.8599 12.0081C2.0799 12.3921 1.4559 12.7281 0.399902 12.7281V15.0681C2.0199 15.0681 3.0399 14.5521 3.9399 14.1081C4.7199 13.6881 5.3199 13.3881 6.3999 13.3881C7.4799 13.3881 8.0799 13.6881 8.8599 14.1081C9.7599 14.5641 10.7439 15.0681 12.3999 15.0681C14.0559 15.0681 15.0399 14.5521 15.9399 14.1081C16.7199 13.6881 17.3199 13.3881 18.3999 13.3881C19.4799 13.3881 20.0799 13.6881 20.8599 14.1081C21.7599 14.5641 22.7559 15.0681 24.3999 15.0681V12.7281C23.3199 12.7281 22.7199 12.4281 21.9399 12.0081C21.0399 11.5521 20.0199 11.0481 18.3999 11.0481ZM21.9399 1.35209C21.0399 0.89609 20.0439 0.39209 18.3999 0.39209C16.7559 0.39209 15.7599 0.89609 14.8599 1.35209C14.0799 1.73609 13.4439 2.07209 12.3999 2.07209C11.3199 2.07209 10.7199 1.77209 9.9399 1.35209C9.0399 0.90809 8.0559 0.39209 6.3999 0.39209C4.7439 0.39209 3.7599 0.89609 2.8599 1.35209C2.0799 1.74809 1.4559 2.07209 0.399902 2.07209V4.38809C2.0199 4.38809 3.0399 3.87209 3.9399 3.42809C4.7199 3.03209 5.3439 2.70809 6.3999 2.70809C7.4559 2.70809 8.0799 3.00809 8.8599 3.42809C9.7599 3.88409 10.7439 4.38809 12.3999 4.38809C14.0559 4.38809 15.0399 3.87209 15.9399 3.42809C16.7199 3.04409 17.3559 2.70809 18.3999 2.70809C19.4799 2.70809 20.0799 3.00809 20.8599 3.42809C21.7599 3.88409 22.7559 4.38809 24.3999 4.38809V2.04809C23.3199 2.04809 22.7199 1.74809 21.9399 1.35209ZM18.3999 5.70809C16.7799 5.70809 15.7599 6.22409 14.8599 6.66809C14.0799 7.08809 13.4799 7.38809 12.3999 7.38809C11.3199 7.38809 10.7199 7.08809 9.9399 6.66809C9.0399 6.21209 8.0559 5.70809 6.3999 5.70809C4.7439 5.70809 3.7599 6.22409 2.8599 6.66809C2.0799 7.08809 1.4799 7.38809 0.399902 7.38809V9.72809C2.0199 9.72809 3.0399 9.21209 3.9399 8.76809C4.7199 8.38409 5.3559 8.04809 6.3999 8.04809C7.4439 8.04809 8.0799 8.34809 8.8599 8.76809C9.7599 9.22409 10.7439 9.72809 12.3999 9.72809C14.0559 9.72809 15.0399 9.21209 15.9399 8.76809C16.7199 8.38409 17.3559 8.04809 18.3999 8.04809C19.4799 8.04809 20.0799 8.34809 20.8599 8.76809C21.7599 9.22409 22.7559 9.72809 24.3999 9.72809V7.38809C23.3199 7.38809 22.7199 7.08809 21.9399 6.66809C21.0399 6.21209 20.0199 5.70809 18.3999 5.70809Z" fill="black" fill-opacity="0.2"/>
</svg>
